<?xml version="1.0" standalone="no"?>
<!DOCTYPE svg PUBLIC "-//W3C//DTD SVG 20010904//EN"
 "http://www.w3.org/TR/2001/REC-SVG-20010904/DTD/svg10.dtd">
<svg version="1.0" xmlns="http://www.w3.org/2000/svg"
 width="700.000000pt" height="700.000000pt" viewBox="0 0 700.000000 700.000000"
 preserveAspectRatio="xMidYMid meet">
<metadata>
Created by potrace 1.11, written by Peter Selinger 2001-2013
</metadata>
<g transform="translate(0.000000,700.000000) scale(0.100000,-0.100000)"
fill="#000000" stroke="none">
<path d="M3 3500 l0 -3498 3496 1 3496 2 2 3496 1 3496 -3498 1 -3498 0 1
-3498z m6942 3451 c12 -1 15 -6893 4 -6901 -4 -3 -1559 -5 -3456 -5 l-3448 0
0 3450 c-1 1898 2 3452 6 3455 6 4 6861 5 6894 1z"/>
<path d="M270 3500 l0 -3230 3230 0 3230 0 0 3230 0 3230 -3230 0 -3230 0 0
-3230z m6380 0 l0 -3150 -3150 0 -3150 0 0 3150 0 3150 3150 0 3150 0 0 -3150z"/>
<path d="M1763 5132 l-53 -3 0 -1475 0 -1474 43 -1 c270 -5 610 -1 615 8 4 6
7 279 6 607 l-1 596 292 0 292 0 -1 -601 c-1 -360 3 -603 8 -607 8 -4 478 -7
623 -3 l33 1 0 1475 -1 1475 -102 0 c-443 1 -551 0 -556 -9 -3 -5 -6 -284 -5
-620 0 -336 -2 -611 -5 -612 -25 -4 -565 -3 -571 1 -4 3 -7 273 -8 600 0 327
-1 606 -1 620 l-1 25 -277 0 c-153 0 -302 -1 -330 -3z"/>
<path d="M4301 5073 c-160 -30 -257 -116 -292 -260 -18 -72 -20 -946 -2 -1030
17 -83 46 -139 96 -186 92 -88 169 -104 491 -106 141 -1 246 -6 258 -12 10 -6
23 -22 29 -36 5 -14 9 -170 10 -367 0 -541 2 -491 -25 -522 l-23 -28 -160 -1
c-88 0 -174 3 -191 7 -52 14 -56 33 -59 263 -1 116 -3 213 -3 218 0 4 -96 7
-214 7 l-213 0 2 -272 c2 -231 5 -281 19 -323 47 -133 139 -209 284 -237 60
-11 602 -14 684 -4 168 21 267 103 319 261 20 60 21 1023 2 1108 -36 157 -129
241 -298 272 -22 4 -143 9 -270 10 -126 1 -244 5 -260 8 -59 14 -59 16 -60
429 -1 241 3 389 9 410 16 47 53 57 224 57 189 1 209 -7 228 -91 1 -5 2 -97 3
-206 l1 -199 214 0 215 1 -3 265 c-3 272 -8 317 -46 391 -42 82 -131 146 -237
171 -72 18 -639 19 -732 2z"/>
</g>
</svg>
